<svg xmlns="http://www.w3.org/2000/svg" xmlns:xlink="http://www.w3.org/1999/xlink" version="1.0" x="0" y="0" width="2400" height="1523.911319061434" viewBox="89.03239501953125 73.58856262207031 161.9352099609375 102.82287475585937" preserveAspectRatio="xMidYMid meet" color-interpolation-filters="sRGB"><g><defs><linearGradient id="92" x1="0%" y1="0%" x2="100%" y2="0%"><stop offset="0%" stop-color="#fa71cd"></stop> <stop offset="100%" stop-color="#9b59b6"></stop></linearGradient><linearGradient id="93" x1="0%" y1="0%" x2="100%" y2="0%"><stop offset="0%" stop-color="#f9d423"></stop> <stop offset="100%" stop-color="#f83600"></stop></linearGradient><linearGradient id="94" x1="0%" y1="0%" x2="100%" y2="0%"><stop offset="0%" stop-color="#0064d2"></stop> <stop offset="100%" stop-color="#1cb0f6"></stop></linearGradient><linearGradient id="95" x1="0%" y1="0%" x2="100%" y2="0%"><stop offset="0%" stop-color="#f00978"></stop> <stop offset="100%" stop-color="#3f51b1"></stop></linearGradient><linearGradient id="96" x1="0%" y1="0%" x2="100%" y2="0%"><stop offset="0%" stop-color="#7873f5"></stop> <stop offset="100%" stop-color="#ec77ab"></stop></linearGradient><linearGradient id="97" x1="0%" y1="0%" x2="100%" y2="0%"><stop offset="0%" stop-color="#f9d423"></stop> <stop offset="100%" stop-color="#e14fad"></stop></linearGradient><linearGradient id="98" x1="0%" y1="0%" x2="100%" y2="0%"><stop offset="0%" stop-color="#009efd"></stop> <stop offset="100%" stop-color="#2af598"></stop></linearGradient><linearGradient id="99" x1="0%" y1="0%" x2="100%" y2="0%"><stop offset="0%" stop-color="#ffcc00"></stop> <stop offset="100%" stop-color="#00b140"></stop></linearGradient><linearGradient id="100" x1="0%" y1="0%" x2="100%" y2="0%"><stop offset="0%" stop-color="#d51007"></stop> <stop offset="100%" stop-color="#ff8177"></stop></linearGradient><linearGradient id="102" x1="0%" y1="0%" x2="100%" y2="0%"><stop offset="0%" stop-color="#a2b6df"></stop> <stop offset="100%" stop-color="#0c3483"></stop></linearGradient><linearGradient id="103" x1="0%" y1="0%" x2="100%" y2="0%"><stop offset="0%" stop-color="#7ac5d8"></stop> <stop offset="100%" stop-color="#eea2a2"></stop></linearGradient><linearGradient id="104" x1="0%" y1="0%" x2="100%" y2="0%"><stop offset="0%" stop-color="#00ecbc"></stop> <stop offset="100%" stop-color="#007adf"></stop></linearGradient><linearGradient id="105" x1="0%" y1="0%" x2="100%" y2="0%"><stop offset="0%" stop-color="#b88746"></stop> <stop offset="100%" stop-color="#fdf5a6"></stop></linearGradient></defs><g fill="#ffffff" class="icon-text-wrapper icon-svg-group iconsvg" transform="translate(90.6199951171875,75.17616271972656)"><g class="iconsvg-imagesvg" transform="translate(49.3800048828125,0)"><g><rect fill="#ffffff" fill-opacity="0" stroke-width="2" x="0" y="0" width="60" height="64.27767957576731" class="image-rect"></rect> <svg x="0" y="0" width="60" height="64.27767957576731" filtersec="colorsb1902200214" class="image-svg-svg primary" style="overflow: visible;"><svg xmlns="http://www.w3.org/2000/svg" viewBox="-0.010123039595782757 0 92.41159057617188 99"><path d="M.08 26.59c.56.28.94.44 1.3.65q18.73 10.82 37.49 21.63a1.5 1.5 0 0 1 .85 1.5v43.55c0 .34 0 .68-.08 1.18-.44-.2-.76-.31-1-.48Q19.73 83.73.88 72.84a1.58 1.58 0 0 1-.88-1.6V27.92c0-.37.05-.75.08-1.33z" fill="#6000e8"></path><path d="M46.17 0l39.76 23-39.76 23z" fill="#fecc01"></path><path d="M59.26 91.45c0-.72-.06-1.14-.06-1.55v-43a1.88 1.88 0 0 1 1.1-2c1.57-.81 3.07-1.74 4.6-2.61.33-.18.67-.33 1.18-.59 0 .67.09 1.12.09 1.57v22.37c0 6.86-.08 13.73-.08 20.59a1.9 1.9 0 0 1-1.13 2c-1.85.99-3.63 2.05-5.7 3.22z" fill="#6000e8"></path><path d="M46 99v-1.67V54.6a2 2 0 0 1 1.17-2c1.82-1 3.59-2.05 5.6-3.21.06.62.13 1 .13 1.41V94a1.81 1.81 0 0 1-1.09 1.85c-1.53.79-3 1.7-4.49 2.56-.32.14-.66.3-1.32.59z" fill="#fb017a"></path><path d="M85.64 76.26c0-.76-.09-1.21-.09-1.67V31.87a2.12 2.12 0 0 1 1.29-2.2c1.79-.94 3.51-2 5.48-3.16 0 .67.07 1.08.07 1.48v43.08a1.89 1.89 0 0 1-1.1 1.93c-1.83 1-3.6 2.07-5.65 3.26z" fill="#e8391c"></path><path d="M72.49 83.85c0-.8-.08-1.29-.08-1.79V39.45a2.16 2.16 0 0 1 1.29-2.22c1.8-.92 3.53-2 5.5-3.09 0 .58.09 1 .09 1.31q0 21.72-.05 43.44a1.55 1.55 0 0 1-.88 1.6c-1.91 1.03-3.76 2.14-5.87 3.36zM39.62 42.1c-2.22-1.28-4.26-2.41-6.24-3.65-.31-.2-.44-.88-.44-1.34V13.47 8.53a1.61 1.61 0 0 1 .53-1.16c1.84-1.13 3.73-2.17 5.61-3.23a3.33 3.33 0 0 1 .54-.14z" fill="#2be7fe"></path><path d="M26.41 11.43V34.5c-2.22-1.3-4.28-2.47-6.31-3.72a1.38 1.38 0 0 1-.36-1V16.14a1.36 1.36 0 0 1 .39-1c2.03-1.27 4.09-2.44 6.28-3.71z" fill="#e8391c"></path><path d="M13.35 27l-6.87-4 6.87-4z" fill="#6000e8"></path></svg></svg> </g></g> <g transform="translate(0,71.27767944335938)"><g fill-rule="" class="tp-name iconsvg-namesvg"><g transform="scale(1)"><g><path d="M21.97-28.21L29.83-28.21Q30.63-28.21 31.46-28.13 32.28-28.05 32.95-27.75 33.61-27.45 34.04-26.85 34.46-26.26 34.46-25.23L34.46-25.23Q34.46-24.2 34.04-23.61 33.61-23.01 32.95-22.71 32.28-22.41 31.46-22.33 30.63-22.25 29.83-22.25L29.83-22.25 25.03-22.25 25.03-17.01 27.57-17.01Q28.35-17.01 29.18-16.95 30.01-16.89 30.67-16.61 31.34-16.32 31.77-15.72 32.2-15.11 32.2-14.03L32.2-14.03Q32.2-12.94 31.78-12.33 31.36-11.73 30.69-11.45 30.03-11.16 29.2-11.1 28.37-11.04 27.57-11.04L27.57-11.04 25.03-11.04 25.03-4.64Q25.03-3.75 24.98-2.92 24.93-2.1 24.64-1.44 24.34-0.79 23.72-0.39 23.09 0 21.97 0L21.97 0Q20.82 0 20.19-0.39 19.57-0.79 19.29-1.44 19-2.1 18.95-2.92 18.9-3.75 18.9-4.64L18.9-4.64 18.9-23.58Q18.9-24.44 18.95-25.27 19-26.1 19.29-26.75 19.57-27.41 20.19-27.81 20.82-28.21 21.97-28.21L21.97-28.21ZM53.85-12.74L53.85-11.49Q53.85-11.16 53.81-10.73 53.77-10.3 53.49-9.9 53.22-9.51 52.64-9.23 52.05-8.95 50.99-8.95L50.99-8.95 42.96-8.95 42.96-7.01Q42.96-6.53 43.09-6.01 43.21-5.48 43.5-5.04 43.79-4.59 44.27-4.31 44.76-4.03 45.46-4.03L45.46-4.03Q46.27-4.03 46.7-4.22 47.14-4.41 47.39-4.7 47.64-4.98 47.84-5.3 48.04-5.62 48.38-5.9 48.71-6.19 49.3-6.38 49.9-6.57 50.94-6.57L50.94-6.57Q51.45-6.57 51.92-6.49 52.4-6.41 52.76-6.19 53.12-5.97 53.34-5.57 53.56-5.18 53.56-4.55L53.56-4.55Q53.56-3.24 52.74-2.37 51.91-1.49 50.66-0.97 49.41-0.44 47.95-0.22 46.49 0 45.22 0L45.22 0Q43.55-0.02 42.04-0.42 40.53-0.83 39.37-1.71 38.21-2.6 37.52-4.03 36.84-5.46 36.84-7.54L36.84-7.54 36.84-12.25Q36.84-14.17 37.29-15.5 37.75-16.83 38.47-17.71 39.2-18.6 40.1-19.09 41.01-19.59 41.94-19.83 42.86-20.07 43.7-20.13 44.54-20.19 45.14-20.19L45.14-20.19Q47.18-20.19 48.62-19.83 50.06-19.47 51.03-18.88 51.99-18.3 52.56-17.53 53.12-16.77 53.4-15.95 53.69-15.13 53.77-14.3 53.85-13.46 53.85-12.74L53.85-12.74ZM42.96-13.38L42.96-11.97 48-11.97Q48-12.92 47.95-13.65 47.9-14.39 47.65-14.89 47.4-15.4 46.86-15.66 46.33-15.92 45.34-15.92L45.34-15.92Q44.52-15.92 44.04-15.66 43.57-15.4 43.33-15 43.09-14.61 43.03-14.17 42.96-13.72 42.96-13.38L42.96-13.38ZM63.32-14.87L63.32-14.87Q63.32-14.47 63.58-14.13 63.84-13.78 64.3-13.47 64.75-13.16 65.34-12.86 65.94-12.55 66.58-12.25L66.58-12.25Q67.57-11.77 68.6-11.21 69.63-10.66 70.47-9.91 71.32-9.17 71.85-8.19 72.39-7.21 72.39-5.88L72.39-5.88Q72.39-4.68 72.03-3.75 71.68-2.82 71.1-2.15 70.51-1.47 69.74-1.03 68.96-0.58 68.1-0.32 67.25-0.06 66.36 0.05 65.47 0.16 64.69 0.16L64.69 0.16Q63.14 0.16 61.99-0.1 60.84-0.36 60.01-0.8 59.19-1.23 58.65-1.78 58.12-2.34 57.82-2.94 57.51-3.55 57.39-4.14 57.27-4.74 57.27-5.24L57.27-5.24Q57.27-6.45 57.95-7.01 58.62-7.58 60.01-7.58L60.01-7.58Q61.02-7.58 61.67-7.03 62.31-6.49 62.35-5.28L62.35-5.28Q62.37-4.88 62.58-4.64 62.79-4.39 63.13-4.24 63.46-4.09 63.86-4.04 64.27-3.99 64.65-3.99L64.65-3.99Q65.43-3.99 65.93-4.4 66.42-4.82 66.42-5.48L66.42-5.48Q66.42-6.05 66.09-6.54 65.76-7.03 65.21-7.46 64.67-7.88 63.97-8.27 63.28-8.67 62.55-9.07L62.55-9.07Q61.65-9.55 60.73-10.1 59.81-10.64 59.07-11.31 58.32-11.97 57.86-12.81 57.39-13.64 57.39-14.71L57.39-14.71Q57.39-16.28 57.91-17.34 58.42-18.4 59.41-19.05 60.4-19.71 61.82-19.99 63.24-20.27 65.05-20.31L65.05-20.31 65.37-20.31Q67.01-20.31 68.14-20.03 69.28-19.75 70.04-19.3 70.79-18.84 71.23-18.28 71.66-17.71 71.87-17.14 72.08-16.57 72.14-16.04 72.19-15.52 72.19-15.15L72.19-15.15Q72.19-14.55 71.93-14.16 71.68-13.76 71.27-13.53 70.86-13.3 70.33-13.21 69.81-13.12 69.24-13.1L69.24-13.1Q68.76-13.1 68.37-13.26 67.97-13.42 67.69-13.66 67.41-13.91 67.26-14.21 67.11-14.51 67.11-14.79L67.11-14.79Q67.07-15.56 66.49-15.96 65.92-16.36 65.09-16.36L65.09-16.36Q64.75-16.36 64.44-16.29 64.12-16.22 63.87-16.05 63.62-15.88 63.47-15.6 63.32-15.32 63.32-14.87ZM77.95-20.15L79.08-20.15 79.08-23.7Q79.08-24.55 79.17-25.35 79.26-26.16 79.58-26.79 79.9-27.43 80.51-27.82 81.11-28.21 82.14-28.21L82.14-28.21Q83.15-28.21 83.75-27.82 84.36-27.43 84.67-26.79 84.98-26.16 85.07-25.35 85.16-24.55 85.16-23.7L85.16-23.7 85.16-20.15 86.82-20.15Q87.34-20.15 87.86-20.1 88.39-20.05 88.8-19.81 89.21-19.57 89.47-19.08 89.72-18.6 89.72-17.73L89.72-17.73Q89.72-16.91 89.47-16.42 89.21-15.94 88.8-15.7 88.39-15.46 87.86-15.39 87.34-15.32 86.82-15.32L86.82-15.32 85.16-15.32 85.16-8.26Q85.16-7.86 85.19-7.41 85.22-6.95 85.41-6.57 85.59-6.19 85.95-5.93 86.31-5.68 86.98-5.68L86.98-5.68Q87.7-5.68 88.22-5.57 88.73-5.46 89.06-5.18 89.4-4.9 89.56-4.39 89.72-3.89 89.72-3.1L89.72-3.1Q89.72-2.3 89.35-1.71 88.97-1.13 88.35-0.75 87.72-0.36 86.9-0.18 86.07 0 85.16 0L85.16 0Q83.73 0 82.71-0.3 81.7-0.6 81.02-1.16 80.35-1.71 79.95-2.49 79.56-3.26 79.37-4.23 79.18-5.2 79.13-6.32 79.08-7.44 79.08-8.67L79.08-8.67 79.08-15.32 77.95-15.32Q77.42-15.32 76.91-15.39 76.4-15.46 75.99-15.7 75.59-15.94 75.34-16.42 75.09-16.91 75.09-17.73L75.09-17.73Q75.09-18.6 75.34-19.08 75.59-19.57 75.99-19.81 76.4-20.05 76.91-20.1 77.42-20.15 77.95-20.15L77.95-20.15ZM94.51-4.51L94.51-15.64Q94.51-16.48 94.6-17.29 94.7-18.1 95.02-18.73 95.34-19.37 95.94-19.76 96.55-20.15 97.58-20.15L97.58-20.15Q98.61-20.15 99.21-19.76 99.81-19.37 100.14-18.73 100.46-18.1 100.55-17.29 100.64-16.48 100.64-15.64L100.64-15.64 100.64-4.51Q100.64-3.67 100.55-2.85 100.46-2.04 100.14-1.4 99.81-0.77 99.21-0.38 98.61 0 97.58 0L97.58 0Q96.55 0 95.94-0.38 95.34-0.77 95.02-1.4 94.7-2.04 94.6-2.85 94.51-3.67 94.51-4.51L94.51-4.51ZM100.68-25.15L100.68-25.15Q100.68-23.6 99.87-22.84 99.07-22.09 97.62-22.09L97.62-22.09Q96.17-22.09 95.36-22.84 94.55-23.6 94.55-25.15L94.55-25.15Q94.55-26.76 95.36-27.49 96.17-28.21 97.62-28.21L97.62-28.21Q99.17-28.21 99.92-27.49 100.68-26.76 100.68-25.15ZM115.59-11.12L113.01-11.12 113.01-4.59Q113.01-3.73 112.96-2.9 112.91-2.08 112.62-1.43 112.33-0.79 111.7-0.39 111.08 0 109.91 0L109.91 0Q108.78 0 108.17-0.39 107.55-0.79 107.27-1.43 106.99-2.08 106.94-2.9 106.89-3.73 106.89-4.59L106.89-4.59 106.89-23.62Q106.89-24.48 106.94-25.31 106.99-26.14 107.27-26.78 107.55-27.43 108.17-27.82 108.78-28.21 109.91-28.21L109.91-28.21 116.56-28.21Q119.06-28.09 121.03-27.17L121.03-27.17Q121.88-26.76 122.68-26.16 123.47-25.55 124.11-24.68 124.74-23.8 125.13-22.6 125.51-21.4 125.51-19.83L125.51-19.83Q125.51-17.67 124.83-16.05 124.16-14.43 122.88-13.33 121.6-12.23 119.75-11.68 117.91-11.12 115.59-11.12L115.59-11.12ZM113.01-15.92L115.75-15.92Q116.76-15.98 117.57-16.4L117.57-16.4Q117.91-16.59 118.23-16.87 118.56-17.15 118.82-17.56 119.08-17.98 119.23-18.54 119.38-19.1 119.38-19.83L119.38-19.83Q119.38-20.52 119.23-21.03 119.08-21.54 118.84-21.92 118.6-22.29 118.29-22.55 117.99-22.81 117.67-22.99L117.67-22.99Q116.9-23.38 115.96-23.46L115.96-23.46 113.01-23.46 113.01-15.92ZM128.65-4.51L128.65-23.74Q128.65-24.59 128.74-25.39 128.83-26.2 129.16-26.82 129.48-27.45 130.08-27.83 130.69-28.21 131.72-28.21L131.72-28.21Q132.76-28.21 133.37-27.83 133.97-27.45 134.28-26.82 134.6-26.2 134.69-25.39 134.78-24.59 134.78-23.74L134.78-23.74 134.78-4.51Q134.78-3.67 134.69-2.85 134.6-2.04 134.28-1.4 133.97-0.77 133.37-0.38 132.76 0 131.72 0L131.72 0Q130.69 0 130.08-0.38 129.48-0.77 129.16-1.4 128.83-2.04 128.74-2.85 128.65-3.67 128.65-4.51L128.65-4.51ZM156.02-15.56L156.02-4.55Q156.02-3.71 155.96-2.89 155.9-2.08 155.6-1.43 155.29-0.79 154.69-0.39 154.08 0 153 0L153 0Q151.89 0 151.26-0.37 150.64-0.75 150.34-1.28 150.03-1.81 149.96-2.4 149.89-2.98 149.89-3.39L149.89-3.39Q149.71-2.8 149.38-2.2 149.05-1.59 148.52-1.11 148-0.62 147.26-0.31 146.53 0 145.54 0L145.54 0Q144.43 0 143.32-0.36 142.21-0.73 141.33-1.57 140.44-2.42 139.89-3.78 139.33-5.14 139.33-7.13L139.33-7.13 139.33-12.98Q139.33-14.99 139.89-16.35 140.44-17.71 141.33-18.55 142.21-19.39 143.32-19.75 144.43-20.11 145.54-20.11L145.54-20.11Q146.53-20.11 147.26-19.81 148-19.51 148.52-19.02 149.05-18.54 149.38-17.94 149.71-17.33 149.89-16.73L149.89-16.73Q149.89-17.73 150.17-18.4 150.46-19.06 150.9-19.46 151.34-19.85 151.9-20 152.45-20.15 153-20.15L153-20.15Q154-20.15 154.61-19.76 155.21-19.37 155.53-18.73 155.84-18.1 155.93-17.26 156.02-16.42 156.02-15.56L156.02-15.56ZM145.54-12.53L145.54-7.66Q145.54-7.11 145.58-6.59 145.62-6.07 145.8-5.64 145.98-5.22 146.34-4.97 146.69-4.72 147.31-4.72L147.31-4.72Q148.1-4.72 148.59-5.07 149.09-5.42 149.37-6.16 149.65-6.89 149.76-8.01 149.87-9.13 149.89-10.68L149.89-10.68Q149.89-11.31 149.78-12.12 149.67-12.94 149.39-13.66 149.11-14.39 148.6-14.89 148.1-15.4 147.31-15.4L147.31-15.4Q146.69-15.4 146.34-15.14 145.98-14.89 145.8-14.49 145.62-14.09 145.58-13.57 145.54-13.06 145.54-12.53L145.54-12.53ZM177.66-12.98L177.66-4.59Q177.66-3.73 177.56-2.9 177.46-2.08 177.13-1.43 176.8-0.79 176.18-0.39 175.57 0 174.52 0L174.52 0Q173.49 0 172.89-0.39 172.28-0.79 171.96-1.43 171.64-2.08 171.55-2.9 171.46-3.73 171.46-4.59L171.46-4.59 171.46-12.45Q171.46-13.02 171.41-13.56 171.35-14.11 171.17-14.52 170.99-14.93 170.64-15.18 170.29-15.44 169.68-15.44L169.68-15.44Q168.86-15.44 168.35-14.89 167.85-14.35 167.56-13.4 167.26-12.45 167.16-11.17 167.06-9.89 167.06-8.42L167.06-8.42 167.06-4.59Q167.06-3.73 166.96-2.9 166.86-2.08 166.53-1.43 166.2-0.79 165.58-0.39 164.97 0 163.92 0L163.92 0Q162.89 0 162.29-0.39 161.68-0.79 161.36-1.43 161.04-2.08 160.95-2.9 160.86-3.73 160.86-4.59L160.86-4.59 160.86-15.6Q160.86-16.46 160.92-17.28 160.98-18.1 161.28-18.73 161.58-19.37 162.2-19.76 162.81-20.15 163.92-20.15L163.92-20.15Q165.03-20.15 165.65-19.78 166.28-19.41 166.59-18.88 166.9-18.36 166.98-17.77 167.06-17.19 167.06-16.77L167.06-16.77Q167.22-17.35 167.57-17.96 167.91-18.56 168.44-19.04 168.98-19.53 169.72-19.84 170.47-20.15 171.46-20.15L171.46-20.15Q172.56-20.15 173.67-19.79 174.78-19.43 175.67-18.58 176.55-17.73 177.11-16.36 177.66-14.99 177.66-12.98L177.66-12.98Z" transform="translate(-18.899999618530273, 28.209999084472656)"></path></g> </g></g> </g></g><defs v-gra="od"></defs></g></svg>