<svg xmlns="http://www.w3.org/2000/svg" xmlns:xlink="http://www.w3.org/1999/xlink" version="1.0" x="0" y="0" width="2400" height="1529.59529300901" viewBox="78.92931167602539 66.95778457641602 182.14139190673828 116.08442321777343" preserveAspectRatio="xMidYMid meet" color-interpolation-filters="sRGB"><g><defs><linearGradient id="92" x1="0%" y1="0%" x2="100%" y2="0%"><stop offset="0%" stop-color="#fa71cd"></stop> <stop offset="100%" stop-color="#9b59b6"></stop></linearGradient><linearGradient id="93" x1="0%" y1="0%" x2="100%" y2="0%"><stop offset="0%" stop-color="#f9d423"></stop> <stop offset="100%" stop-color="#f83600"></stop></linearGradient><linearGradient id="94" x1="0%" y1="0%" x2="100%" y2="0%"><stop offset="0%" stop-color="#0064d2"></stop> <stop offset="100%" stop-color="#1cb0f6"></stop></linearGradient><linearGradient id="95" x1="0%" y1="0%" x2="100%" y2="0%"><stop offset="0%" stop-color="#f00978"></stop> <stop offset="100%" stop-color="#3f51b1"></stop></linearGradient><linearGradient id="96" x1="0%" y1="0%" x2="100%" y2="0%"><stop offset="0%" stop-color="#7873f5"></stop> <stop offset="100%" stop-color="#ec77ab"></stop></linearGradient><linearGradient id="97" x1="0%" y1="0%" x2="100%" y2="0%"><stop offset="0%" stop-color="#f9d423"></stop> <stop offset="100%" stop-color="#e14fad"></stop></linearGradient><linearGradient id="98" x1="0%" y1="0%" x2="100%" y2="0%"><stop offset="0%" stop-color="#009efd"></stop> <stop offset="100%" stop-color="#2af598"></stop></linearGradient><linearGradient id="99" x1="0%" y1="0%" x2="100%" y2="0%"><stop offset="0%" stop-color="#ffcc00"></stop> <stop offset="100%" stop-color="#00b140"></stop></linearGradient><linearGradient id="100" x1="0%" y1="0%" x2="100%" y2="0%"><stop offset="0%" stop-color="#d51007"></stop> <stop offset="100%" stop-color="#ff8177"></stop></linearGradient><linearGradient id="102" x1="0%" y1="0%" x2="100%" y2="0%"><stop offset="0%" stop-color="#a2b6df"></stop> <stop offset="100%" stop-color="#0c3483"></stop></linearGradient><linearGradient id="103" x1="0%" y1="0%" x2="100%" y2="0%"><stop offset="0%" stop-color="#7ac5d8"></stop> <stop offset="100%" stop-color="#eea2a2"></stop></linearGradient><linearGradient id="104" x1="0%" y1="0%" x2="100%" y2="0%"><stop offset="0%" stop-color="#00ecbc"></stop> <stop offset="100%" stop-color="#007adf"></stop></linearGradient><linearGradient id="105" x1="0%" y1="0%" x2="100%" y2="0%"><stop offset="0%" stop-color="#b88746"></stop> <stop offset="100%" stop-color="#fdf5a6"></stop></linearGradient></defs><g fill="#ffffff" class="icon-text-wrapper icon-svg-group iconsvg" transform="translate(90.6154899597168,68.74348831176758)"><g class="iconsvg-imagesvg" transform="translate(49.3800048828125,0)"><g><rect fill="#ffffff" fill-opacity="0" stroke-width="2" x="0" y="0" width="60" height="64.27767957576731" class="image-rect"></rect> <svg x="0" y="0" width="60" height="64.27767957576731" filtersec="colorsb9021745564" class="image-svg-svg primary" style="overflow: visible;"><svg xmlns="http://www.w3.org/2000/svg" viewBox="-0.010123039595782757 0 92.41159057617188 99"><path d="M.08 26.59c.56.28.94.44 1.3.65q18.73 10.82 37.49 21.63a1.5 1.5 0 0 1 .85 1.5v43.55c0 .34 0 .68-.08 1.18-.44-.2-.76-.31-1-.48Q19.73 83.73.88 72.84a1.58 1.58 0 0 1-.88-1.6V27.92c0-.37.05-.75.08-1.33z" fill="#6000e8"></path><path d="M46.17 0l39.76 23-39.76 23z" fill="#fecc01"></path><path d="M59.26 91.45c0-.72-.06-1.14-.06-1.55v-43a1.88 1.88 0 0 1 1.1-2c1.57-.81 3.07-1.74 4.6-2.61.33-.18.67-.33 1.18-.59 0 .67.09 1.12.09 1.57v22.37c0 6.86-.08 13.73-.08 20.59a1.9 1.9 0 0 1-1.13 2c-1.85.99-3.63 2.05-5.7 3.22z" fill="#6000e8"></path><path d="M46 99v-1.67V54.6a2 2 0 0 1 1.17-2c1.82-1 3.59-2.05 5.6-3.21.06.62.13 1 .13 1.41V94a1.81 1.81 0 0 1-1.09 1.85c-1.53.79-3 1.7-4.49 2.56-.32.14-.66.3-1.32.59z" fill="#fb017a"></path><path d="M85.64 76.26c0-.76-.09-1.21-.09-1.67V31.87a2.12 2.12 0 0 1 1.29-2.2c1.79-.94 3.51-2 5.48-3.16 0 .67.07 1.08.07 1.48v43.08a1.89 1.89 0 0 1-1.1 1.93c-1.83 1-3.6 2.07-5.65 3.26z" fill="#e8391c"></path><path d="M72.49 83.85c0-.8-.08-1.29-.08-1.79V39.45a2.16 2.16 0 0 1 1.29-2.22c1.8-.92 3.53-2 5.5-3.09 0 .58.09 1 .09 1.31q0 21.72-.05 43.44a1.55 1.55 0 0 1-.88 1.6c-1.91 1.03-3.76 2.14-5.87 3.36zM39.62 42.1c-2.22-1.28-4.26-2.41-6.24-3.65-.31-.2-.44-.88-.44-1.34V13.47 8.53a1.61 1.61 0 0 1 .53-1.16c1.84-1.13 3.73-2.17 5.61-3.23a3.33 3.33 0 0 1 .54-.14z" fill="#2be7fe"></path><path d="M26.41 11.43V34.5c-2.22-1.3-4.28-2.47-6.31-3.72a1.38 1.38 0 0 1-.36-1V16.14a1.36 1.36 0 0 1 .39-1c2.03-1.27 4.09-2.44 6.28-3.71z" fill="#e8391c"></path><path d="M13.35 27l-6.87-4 6.87-4z" fill="#6000e8"></path></svg></svg> </g></g> <g transform="translate(0,71.27767944335938)"><g fill-rule="" class="tp-name iconsvg-namesvg" transform="translate(0,0)"><g transform="scale(1)"><g><path d="M21.97-28.21L29.83-28.21Q30.63-28.21 31.46-28.13 32.28-28.05 32.95-27.75 33.61-27.45 34.04-26.85 34.46-26.26 34.46-25.23L34.46-25.23Q34.46-24.2 34.04-23.61 33.61-23.01 32.95-22.71 32.28-22.41 31.46-22.33 30.63-22.25 29.83-22.25L29.83-22.25 25.03-22.25 25.03-17.01 27.57-17.01Q28.35-17.01 29.18-16.95 30.01-16.89 30.67-16.61 31.34-16.32 31.77-15.72 32.2-15.11 32.2-14.03L32.2-14.03Q32.2-12.94 31.78-12.33 31.36-11.73 30.69-11.45 30.03-11.16 29.2-11.1 28.37-11.04 27.57-11.04L27.57-11.04 25.03-11.04 25.03-4.64Q25.03-3.75 24.98-2.92 24.93-2.1 24.64-1.44 24.34-0.79 23.72-0.39 23.09 0 21.97 0L21.97 0Q20.82 0 20.19-0.39 19.57-0.79 19.29-1.44 19-2.1 18.95-2.92 18.9-3.75 18.9-4.64L18.9-4.64 18.9-23.58Q18.9-24.44 18.95-25.27 19-26.1 19.29-26.75 19.57-27.41 20.19-27.81 20.82-28.21 21.97-28.21L21.97-28.21ZM53.85-12.74L53.85-11.49Q53.85-11.16 53.81-10.73 53.77-10.3 53.49-9.9 53.22-9.51 52.64-9.23 52.05-8.95 50.99-8.95L50.99-8.95 42.96-8.95 42.96-7.01Q42.96-6.53 43.09-6.01 43.21-5.48 43.5-5.04 43.79-4.59 44.27-4.31 44.76-4.03 45.46-4.03L45.46-4.03Q46.27-4.03 46.7-4.22 47.14-4.41 47.39-4.7 47.64-4.98 47.84-5.3 48.04-5.62 48.38-5.9 48.71-6.19 49.3-6.38 49.9-6.57 50.94-6.57L50.94-6.57Q51.45-6.57 51.92-6.49 52.4-6.41 52.76-6.19 53.12-5.97 53.34-5.57 53.56-5.18 53.56-4.55L53.56-4.55Q53.56-3.24 52.74-2.37 51.91-1.49 50.66-0.97 49.41-0.44 47.95-0.22 46.49 0 45.22 0L45.22 0Q43.55-0.02 42.04-0.42 40.53-0.83 39.37-1.71 38.21-2.6 37.52-4.03 36.84-5.46 36.84-7.54L36.84-7.54 36.84-12.25Q36.84-14.17 37.29-15.5 37.75-16.83 38.47-17.71 39.2-18.6 40.1-19.09 41.01-19.59 41.94-19.83 42.86-20.07 43.7-20.13 44.54-20.19 45.14-20.19L45.14-20.19Q47.18-20.19 48.62-19.83 50.06-19.47 51.03-18.88 51.99-18.3 52.56-17.53 53.12-16.77 53.4-15.95 53.69-15.13 53.77-14.3 53.85-13.46 53.85-12.74L53.85-12.74ZM42.96-13.38L42.96-11.97 48-11.97Q48-12.92 47.95-13.65 47.9-14.39 47.65-14.89 47.4-15.4 46.86-15.66 46.33-15.92 45.34-15.92L45.34-15.92Q44.52-15.92 44.04-15.66 43.57-15.4 43.33-15 43.09-14.61 43.03-14.17 42.96-13.72 42.96-13.38L42.96-13.38ZM63.32-14.87L63.32-14.87Q63.32-14.47 63.58-14.13 63.84-13.78 64.3-13.47 64.75-13.16 65.34-12.86 65.94-12.55 66.58-12.25L66.58-12.25Q67.57-11.77 68.6-11.21 69.63-10.66 70.47-9.91 71.32-9.17 71.85-8.19 72.39-7.21 72.39-5.88L72.39-5.88Q72.39-4.68 72.03-3.75 71.68-2.82 71.1-2.15 70.51-1.47 69.74-1.03 68.96-0.58 68.1-0.32 67.25-0.06 66.36 0.05 65.47 0.16 64.69 0.16L64.69 0.16Q63.14 0.16 61.99-0.1 60.84-0.36 60.01-0.8 59.19-1.23 58.65-1.78 58.12-2.34 57.82-2.94 57.51-3.55 57.39-4.14 57.27-4.74 57.27-5.24L57.27-5.24Q57.27-6.45 57.95-7.01 58.62-7.58 60.01-7.58L60.01-7.58Q61.02-7.58 61.67-7.03 62.31-6.49 62.35-5.28L62.35-5.28Q62.37-4.88 62.58-4.64 62.79-4.39 63.13-4.24 63.46-4.09 63.86-4.04 64.27-3.99 64.65-3.99L64.65-3.99Q65.43-3.99 65.93-4.4 66.42-4.82 66.42-5.48L66.42-5.48Q66.42-6.05 66.09-6.54 65.76-7.03 65.21-7.46 64.67-7.88 63.97-8.27 63.28-8.67 62.55-9.07L62.55-9.07Q61.65-9.55 60.73-10.1 59.81-10.64 59.07-11.31 58.32-11.97 57.86-12.81 57.39-13.64 57.39-14.71L57.39-14.71Q57.39-16.28 57.91-17.34 58.42-18.4 59.41-19.05 60.4-19.71 61.82-19.99 63.24-20.27 65.05-20.31L65.05-20.31 65.37-20.31Q67.01-20.31 68.14-20.03 69.28-19.75 70.04-19.3 70.79-18.84 71.23-18.28 71.66-17.71 71.87-17.14 72.08-16.57 72.14-16.04 72.19-15.52 72.19-15.15L72.19-15.15Q72.19-14.55 71.93-14.16 71.68-13.76 71.27-13.53 70.86-13.3 70.33-13.21 69.81-13.12 69.24-13.1L69.24-13.1Q68.76-13.1 68.37-13.26 67.97-13.42 67.69-13.66 67.41-13.91 67.26-14.21 67.11-14.51 67.11-14.79L67.11-14.79Q67.07-15.56 66.49-15.96 65.92-16.36 65.09-16.36L65.09-16.36Q64.75-16.36 64.44-16.29 64.12-16.22 63.87-16.05 63.62-15.88 63.47-15.6 63.32-15.32 63.32-14.87ZM77.95-20.15L79.08-20.15 79.08-23.7Q79.08-24.55 79.17-25.35 79.26-26.16 79.58-26.79 79.9-27.43 80.51-27.82 81.11-28.21 82.14-28.21L82.14-28.21Q83.15-28.21 83.75-27.82 84.36-27.43 84.67-26.79 84.98-26.16 85.07-25.35 85.16-24.55 85.16-23.7L85.16-23.7 85.16-20.15 86.82-20.15Q87.34-20.15 87.86-20.1 88.39-20.05 88.8-19.81 89.21-19.57 89.47-19.08 89.72-18.6 89.72-17.73L89.72-17.73Q89.72-16.91 89.47-16.42 89.21-15.94 88.8-15.7 88.39-15.46 87.86-15.39 87.34-15.32 86.82-15.32L86.82-15.32 85.16-15.32 85.16-8.26Q85.16-7.86 85.19-7.41 85.22-6.95 85.41-6.57 85.59-6.19 85.95-5.93 86.31-5.68 86.98-5.68L86.98-5.68Q87.7-5.68 88.22-5.57 88.73-5.46 89.06-5.18 89.4-4.9 89.56-4.39 89.72-3.89 89.72-3.1L89.72-3.1Q89.72-2.3 89.35-1.71 88.97-1.13 88.35-0.75 87.72-0.36 86.9-0.18 86.07 0 85.16 0L85.16 0Q83.73 0 82.71-0.3 81.7-0.6 81.02-1.16 80.35-1.71 79.95-2.49 79.56-3.26 79.37-4.23 79.18-5.2 79.13-6.32 79.08-7.44 79.08-8.67L79.08-8.67 79.08-15.32 77.95-15.32Q77.42-15.32 76.91-15.39 76.4-15.46 75.99-15.7 75.59-15.94 75.34-16.42 75.09-16.91 75.09-17.73L75.09-17.73Q75.09-18.6 75.34-19.08 75.59-19.57 75.99-19.81 76.4-20.05 76.91-20.1 77.42-20.15 77.95-20.15L77.95-20.15ZM94.51-4.51L94.51-15.64Q94.51-16.48 94.6-17.29 94.7-18.1 95.02-18.73 95.34-19.37 95.94-19.76 96.55-20.15 97.58-20.15L97.58-20.15Q98.61-20.15 99.21-19.76 99.81-19.37 100.14-18.73 100.46-18.1 100.55-17.29 100.64-16.48 100.64-15.64L100.64-15.64 100.64-4.51Q100.64-3.67 100.55-2.85 100.46-2.04 100.14-1.4 99.81-0.77 99.21-0.38 98.61 0 97.58 0L97.58 0Q96.55 0 95.94-0.38 95.34-0.77 95.02-1.4 94.7-2.04 94.6-2.85 94.51-3.67 94.51-4.51L94.51-4.51ZM100.68-25.15L100.68-25.15Q100.68-23.6 99.87-22.84 99.07-22.09 97.62-22.09L97.62-22.09Q96.17-22.09 95.36-22.84 94.55-23.6 94.55-25.15L94.55-25.15Q94.55-26.76 95.36-27.49 96.17-28.21 97.62-28.21L97.62-28.21Q99.17-28.21 99.92-27.49 100.68-26.76 100.68-25.15ZM115.59-11.12L113.01-11.12 113.01-4.59Q113.01-3.73 112.96-2.9 112.91-2.08 112.62-1.43 112.33-0.79 111.7-0.39 111.08 0 109.91 0L109.91 0Q108.78 0 108.17-0.39 107.55-0.79 107.27-1.43 106.99-2.08 106.94-2.9 106.89-3.73 106.89-4.59L106.89-4.59 106.89-23.62Q106.89-24.48 106.94-25.31 106.99-26.14 107.27-26.78 107.55-27.43 108.17-27.82 108.78-28.21 109.91-28.21L109.91-28.21 116.56-28.21Q119.06-28.09 121.03-27.17L121.03-27.17Q121.88-26.76 122.68-26.16 123.47-25.55 124.11-24.68 124.74-23.8 125.13-22.6 125.51-21.4 125.51-19.83L125.51-19.83Q125.51-17.67 124.83-16.05 124.16-14.43 122.88-13.33 121.6-12.23 119.75-11.68 117.91-11.12 115.59-11.12L115.59-11.12ZM113.01-15.92L115.75-15.92Q116.76-15.98 117.57-16.4L117.57-16.4Q117.91-16.59 118.23-16.87 118.56-17.15 118.82-17.56 119.08-17.98 119.23-18.54 119.38-19.1 119.38-19.83L119.38-19.83Q119.38-20.52 119.23-21.03 119.08-21.54 118.84-21.92 118.6-22.29 118.29-22.55 117.99-22.81 117.67-22.99L117.67-22.99Q116.9-23.38 115.96-23.46L115.96-23.46 113.01-23.46 113.01-15.92ZM128.65-4.51L128.65-23.74Q128.65-24.59 128.74-25.39 128.83-26.2 129.16-26.82 129.48-27.45 130.08-27.83 130.69-28.21 131.72-28.21L131.72-28.21Q132.76-28.21 133.37-27.83 133.97-27.45 134.28-26.82 134.6-26.2 134.69-25.39 134.78-24.59 134.78-23.74L134.78-23.74 134.78-4.51Q134.78-3.67 134.69-2.85 134.6-2.04 134.28-1.4 133.97-0.77 133.37-0.38 132.76 0 131.72 0L131.72 0Q130.69 0 130.08-0.38 129.48-0.77 129.16-1.4 128.83-2.04 128.74-2.85 128.65-3.67 128.65-4.51L128.65-4.51ZM156.02-15.56L156.02-4.55Q156.02-3.71 155.96-2.89 155.9-2.08 155.6-1.43 155.29-0.79 154.69-0.39 154.08 0 153 0L153 0Q151.89 0 151.26-0.37 150.64-0.75 150.34-1.28 150.03-1.81 149.96-2.4 149.89-2.98 149.89-3.39L149.89-3.39Q149.71-2.8 149.38-2.2 149.05-1.59 148.52-1.11 148-0.62 147.26-0.31 146.53 0 145.54 0L145.54 0Q144.43 0 143.32-0.36 142.21-0.73 141.33-1.57 140.44-2.42 139.89-3.78 139.33-5.14 139.33-7.13L139.33-7.13 139.33-12.98Q139.33-14.99 139.89-16.35 140.44-17.71 141.33-18.55 142.21-19.39 143.32-19.75 144.43-20.11 145.54-20.11L145.54-20.11Q146.53-20.11 147.26-19.81 148-19.51 148.52-19.02 149.05-18.54 149.38-17.94 149.71-17.33 149.89-16.73L149.89-16.73Q149.89-17.73 150.17-18.4 150.46-19.06 150.9-19.46 151.34-19.85 151.9-20 152.45-20.15 153-20.15L153-20.15Q154-20.15 154.61-19.76 155.21-19.37 155.53-18.73 155.84-18.1 155.93-17.26 156.02-16.42 156.02-15.56L156.02-15.56ZM145.54-12.53L145.54-7.66Q145.54-7.11 145.58-6.59 145.62-6.07 145.8-5.64 145.98-5.22 146.34-4.97 146.69-4.72 147.31-4.72L147.31-4.72Q148.1-4.72 148.59-5.07 149.09-5.42 149.37-6.16 149.65-6.89 149.76-8.01 149.87-9.13 149.89-10.68L149.89-10.68Q149.89-11.31 149.78-12.12 149.67-12.94 149.39-13.66 149.11-14.39 148.6-14.89 148.1-15.4 147.31-15.4L147.31-15.4Q146.69-15.4 146.34-15.14 145.98-14.89 145.8-14.49 145.62-14.09 145.58-13.57 145.54-13.06 145.54-12.53L145.54-12.53ZM177.66-12.98L177.66-4.59Q177.66-3.73 177.56-2.9 177.46-2.08 177.13-1.43 176.8-0.79 176.18-0.39 175.57 0 174.52 0L174.52 0Q173.49 0 172.89-0.39 172.28-0.79 171.96-1.43 171.64-2.08 171.55-2.9 171.46-3.73 171.46-4.59L171.46-4.59 171.46-12.45Q171.46-13.02 171.41-13.56 171.35-14.11 171.17-14.52 170.99-14.93 170.64-15.18 170.29-15.44 169.68-15.44L169.68-15.44Q168.86-15.44 168.35-14.89 167.85-14.35 167.56-13.4 167.26-12.45 167.16-11.17 167.06-9.89 167.06-8.42L167.06-8.42 167.06-4.59Q167.06-3.73 166.96-2.9 166.86-2.08 166.53-1.43 166.2-0.79 165.58-0.39 164.97 0 163.92 0L163.92 0Q162.89 0 162.29-0.39 161.68-0.79 161.36-1.43 161.04-2.08 160.95-2.9 160.86-3.73 160.86-4.59L160.86-4.59 160.86-15.6Q160.86-16.46 160.92-17.28 160.98-18.1 161.28-18.73 161.58-19.37 162.2-19.76 162.81-20.15 163.92-20.15L163.92-20.15Q165.03-20.15 165.65-19.78 166.28-19.41 166.59-18.88 166.9-18.36 166.98-17.77 167.06-17.19 167.06-16.77L167.06-16.77Q167.22-17.35 167.57-17.96 167.91-18.56 168.44-19.04 168.98-19.53 169.72-19.84 170.47-20.15 171.46-20.15L171.46-20.15Q172.56-20.15 173.67-19.79 174.78-19.43 175.67-18.58 176.55-17.73 177.11-16.36 177.66-14.99 177.66-12.98L177.66-12.98Z" transform="translate(-18.899999618530273, 28.209999084472656)"></path></g> </g></g> <g fill-rule="" class="tp-slogan iconsvg-slogansvg" fill="#ffffff" transform="translate(-9.904991149902344,34.369998931884766)"><rect width="0"></rect> <rect x="181.5699920654297" width="0"></rect> <g transform="translate(0,0)"><g transform="scale(1)"><path d="M0.74-5.36L0.74 0L2.44 0C2.74 0 3.02-0.03 3.27-0.10C3.52-0.16 3.73-0.26 3.91-0.39C4.09-0.52 4.23-0.69 4.33-0.88C4.43-1.08 4.48-1.31 4.48-1.57C4.48-1.94 4.37-2.23 4.15-2.44C3.93-2.66 3.63-2.79 3.24-2.85L3.24-2.88C3.55-2.97 3.79-3.11 3.94-3.33C4.09-3.55 4.17-3.79 4.17-4.05C4.17-4.29 4.12-4.49 4.03-4.65C3.94-4.82 3.82-4.96 3.66-5.06C3.50-5.16 3.30-5.24 3.08-5.29C2.85-5.34 2.60-5.36 2.33-5.36ZM2.21-3.07L1.41-3.07L1.41-4.82L2.24-4.82C2.66-4.82 2.97-4.76 3.18-4.63C3.39-4.50 3.50-4.29 3.50-4.00C3.50-3.70 3.40-3.47 3.20-3.31C3.00-3.15 2.67-3.07 2.21-3.07ZM2.35-0.54L1.41-0.54L1.41-2.57L2.35-2.57C2.82-2.57 3.18-2.49 3.43-2.33C3.68-2.18 3.81-1.93 3.81-1.60C3.81-1.24 3.68-0.97 3.42-0.80C3.17-0.63 2.81-0.54 2.35-0.54ZM6.22-2.82L6.22-4.81L7.12-4.81C7.54-4.81 7.86-4.74 8.08-4.60C8.31-4.46 8.42-4.21 8.42-3.86C8.42-3.51 8.31-3.25 8.08-3.08C7.86-2.91 7.54-2.82 7.12-2.82ZM8.48 0L9.25 0L7.89-2.34C8.26-2.43 8.55-2.60 8.77-2.85C8.99-3.10 9.10-3.44 9.10-3.86C9.10-4.14 9.05-4.37 8.96-4.56C8.86-4.75 8.73-4.91 8.57-5.03C8.40-5.15 8.20-5.23 7.97-5.28C7.74-5.34 7.49-5.36 7.22-5.36L5.54-5.36L5.54 0L6.22 0L6.22-2.26L7.19-2.26ZM10.29-5.36L10.29 0L10.97 0L10.97-5.36ZM12.44-5.36L12.44 0L13.08 0L13.08-2.80C13.08-3.09 13.07-3.37 13.06-3.65C13.04-3.93 13.02-4.21 12.99-4.48L13.03-4.48L13.61-3.38L15.55 0L16.25 0L16.25-5.36L15.61-5.36L15.61-2.59C15.61-2.31 15.62-2.02 15.64-1.73C15.66-1.44 15.67-1.15 15.69-0.88L15.66-0.88L15.08-1.99L13.14-5.36ZM17.41-2.68C17.41-2.24 17.47-1.85 17.59-1.51C17.71-1.16 17.88-0.87 18.09-0.63C18.31-0.40 18.56-0.22 18.85-0.09C19.15 0.04 19.47 0.10 19.83 0.10C20.19 0.10 20.51 0.04 20.79-0.08C21.08-0.19 21.31-0.34 21.48-0.52L21.48-2.78L19.73-2.78L19.73-2.21L20.86-2.21L20.86-0.82C20.75-0.72 20.61-0.64 20.44-0.58C20.27-0.53 20.09-0.50 19.90-0.50C19.61-0.50 19.36-0.55 19.14-0.65C18.91-0.76 18.73-0.90 18.58-1.10C18.43-1.29 18.32-1.52 18.24-1.79C18.16-2.06 18.12-2.36 18.12-2.70C18.12-3.03 18.16-3.33 18.24-3.60C18.33-3.86 18.45-4.09 18.60-4.28C18.75-4.47 18.94-4.61 19.16-4.71C19.37-4.81 19.62-4.86 19.89-4.86C20.16-4.86 20.39-4.81 20.57-4.72C20.74-4.62 20.90-4.51 21.04-4.36L21.42-4.80C21.26-4.96 21.06-5.11 20.81-5.25C20.56-5.39 20.25-5.46 19.88-5.46C19.52-5.46 19.19-5.39 18.89-5.27C18.59-5.14 18.33-4.96 18.11-4.72C17.89-4.48 17.72-4.18 17.60-3.84C17.48-3.50 17.41-3.11 17.41-2.68ZM22.77-5.36L22.77 0L23.45 0L23.45-5.36ZM24.92-5.36L24.92 0L25.56 0L25.56-2.80C25.56-3.09 25.55-3.37 25.53-3.65C25.51-3.93 25.49-4.21 25.47-4.48L25.51-4.48L26.09-3.38L28.03 0L28.73 0L28.73-5.36L28.09-5.36L28.09-2.59C28.09-2.31 28.10-2.02 28.12-1.73C28.14-1.44 28.15-1.15 28.17-0.88L28.14-0.88L27.56-1.99L25.62-5.36ZM29.89-2.68C29.89-2.24 29.95-1.85 30.07-1.51C30.19-1.16 30.36-0.87 30.57-0.63C30.78-0.40 31.04-0.22 31.33-0.09C31.63 0.04 31.95 0.10 32.30 0.10C32.66 0.10 32.99 0.04 33.27-0.08C33.56-0.19 33.79-0.34 33.96-0.52L33.96-2.78L32.21-2.78L32.21-2.21L33.34-2.21L33.34-0.82C33.23-0.72 33.09-0.64 32.92-0.58C32.75-0.53 32.57-0.50 32.38-0.50C32.09-0.50 31.83-0.55 31.61-0.65C31.39-0.76 31.21-0.90 31.06-1.10C30.91-1.29 30.79-1.52 30.72-1.79C30.64-2.06 30.60-2.36 30.60-2.70C30.60-3.03 30.64-3.33 30.72-3.60C30.81-3.86 30.93-4.09 31.08-4.28C31.23-4.47 31.42-4.61 31.63-4.71C31.85-4.81 32.10-4.86 32.37-4.86C32.64-4.86 32.87-4.81 33.04-4.72C33.22-4.62 33.38-4.51 33.51-4.36L33.90-4.80C33.74-4.96 33.54-5.11 33.29-5.25C33.04-5.39 32.73-5.46 32.36-5.46C32.00-5.46 31.67-5.39 31.37-5.27C31.07-5.14 30.81-4.96 30.59-4.72C30.37-4.48 30.20-4.18 30.08-3.84C29.96-3.50 29.89-3.11 29.89-2.68ZM36.90-5.36L36.90 0L37.58 0L37.58-2.40L39.62-2.40L39.62-2.97L37.58-2.97L37.58-4.79L39.99-4.79L39.99-5.36ZM40.93-5.36L40.93 0L44.11 0L44.11-0.58L41.61-0.58L41.61-2.53L43.65-2.53L43.65-3.11L41.61-3.11L41.61-4.79L44.02-4.79L44.02-5.36ZM45.26-1.17L44.85-0.69C45.08-0.45 45.36-0.26 45.68-0.11C46.00 0.03 46.35 0.10 46.73 0.10C47.01 0.10 47.27 0.06 47.49-0.02C47.71-0.10 47.90-0.21 48.06-0.35C48.22-0.49 48.34-0.65 48.42-0.83C48.51-1.02 48.55-1.22 48.55-1.43C48.55-1.63 48.52-1.80 48.46-1.95C48.41-2.10 48.33-2.23 48.23-2.34C48.13-2.45 48.02-2.55 47.88-2.64C47.74-2.72 47.60-2.79 47.45-2.86L46.69-3.19C46.58-3.23 46.47-3.28 46.37-3.33C46.27-3.38 46.17-3.44 46.08-3.51C46.00-3.58 45.93-3.66 45.87-3.75C45.82-3.84 45.80-3.95 45.80-4.08C45.80-4.32 45.89-4.52 46.07-4.65C46.25-4.79 46.49-4.86 46.79-4.86C47.04-4.86 47.27-4.82 47.47-4.73C47.67-4.64 47.85-4.51 48.01-4.36L48.38-4.80C48.19-4.99 47.96-5.15 47.68-5.28C47.41-5.40 47.12-5.46 46.79-5.46C46.55-5.46 46.32-5.42 46.12-5.35C45.92-5.28 45.74-5.18 45.59-5.05C45.44-4.93 45.32-4.78 45.24-4.60C45.15-4.43 45.11-4.24 45.11-4.04C45.11-3.84 45.14-3.67 45.21-3.52C45.27-3.37 45.36-3.24 45.46-3.13C45.57-3.02 45.68-2.93 45.81-2.85C45.94-2.78 46.07-2.71 46.20-2.66L46.97-2.32C47.09-2.26 47.21-2.20 47.32-2.15C47.43-2.09 47.52-2.03 47.60-1.97C47.68-1.90 47.74-1.82 47.79-1.72C47.83-1.62 47.86-1.51 47.86-1.37C47.86-1.11 47.76-0.90 47.56-0.74C47.37-0.58 47.09-0.50 46.74-0.50C46.46-0.50 46.19-0.56 45.93-0.68C45.67-0.80 45.45-0.97 45.26-1.17ZM50.55-4.79L50.55 0L51.24 0L51.24-4.79L52.86-4.79L52.86-5.36L48.93-5.36L48.93-4.79ZM53.82-5.36L53.82 0L54.50 0L54.50-5.36ZM55.24-5.36L56.95 0L57.74 0L59.44-5.36L58.75-5.36L57.89-2.47C57.80-2.15 57.71-1.85 57.64-1.58C57.56-1.30 57.47-1.01 57.38-0.69L57.34-0.69C57.24-1.01 57.15-1.30 57.08-1.58C57.00-1.85 56.92-2.15 56.82-2.47L55.96-5.36ZM60.18-5.36L60.18 0L60.86 0L60.86-5.36ZM63.44-4.79L63.44 0L64.13 0L64.13-4.79L65.75-4.79L65.75-5.36L61.82-5.36L61.82-4.79ZM66.71-5.36L66.71 0L67.39 0L67.39-5.36ZM68.86-5.36L68.86 0L72.03 0L72.03-0.58L69.54-0.58L69.54-2.53L71.57-2.53L71.57-3.11L69.54-3.11L69.54-4.79L71.95-4.79L71.95-5.36ZM73.18-1.17L72.77-0.69C73.01-0.45 73.29-0.26 73.61-0.11C73.93 0.03 74.28 0.10 74.65 0.10C74.94 0.10 75.19 0.06 75.41-0.02C75.64-0.10 75.83-0.21 75.98-0.35C76.14-0.49 76.26-0.65 76.35-0.83C76.43-1.02 76.48-1.22 76.48-1.43C76.48-1.63 76.45-1.80 76.39-1.95C76.33-2.10 76.25-2.23 76.16-2.34C76.06-2.45 75.94-2.55 75.80-2.64C75.67-2.72 75.52-2.79 75.37-2.86L74.61-3.19C74.50-3.23 74.40-3.28 74.29-3.33C74.19-3.38 74.09-3.44 74.01-3.51C73.92-3.58 73.85-3.66 73.80-3.75C73.75-3.84 73.72-3.95 73.72-4.08C73.72-4.32 73.81-4.52 73.99-4.65C74.18-4.79 74.42-4.86 74.72-4.86C74.97-4.86 75.19-4.82 75.39-4.73C75.59-4.64 75.77-4.51 75.94-4.36L76.30-4.80C76.11-4.99 75.88-5.15 75.61-5.28C75.34-5.40 75.04-5.46 74.72-5.46C74.47-5.46 74.25-5.42 74.04-5.35C73.84-5.28 73.66-5.18 73.51-5.05C73.36-4.93 73.25-4.78 73.16-4.60C73.08-4.43 73.03-4.24 73.03-4.04C73.03-3.84 73.07-3.67 73.13-3.52C73.20-3.37 73.28-3.24 73.39-3.13C73.49-3.02 73.61-2.93 73.74-2.85C73.87-2.78 74.00-2.71 74.12-2.66L74.89-2.32C75.01-2.26 75.13-2.20 75.24-2.15C75.35-2.09 75.44-2.03 75.52-1.97C75.60-1.90 75.66-1.82 75.71-1.72C75.76-1.62 75.78-1.51 75.78-1.37C75.78-1.11 75.68-0.90 75.49-0.74C75.29-0.58 75.01-0.50 74.66-0.50C74.38-0.50 74.11-0.56 73.86-0.68C73.60-0.80 73.37-0.97 73.18-1.17ZM80.29-4.79L80.29 0L80.98 0L80.98-4.79L82.60-4.79L82.60-5.36L78.67-5.36L78.67-4.79ZM85.34 0.10C85.68 0.10 85.99 0.03 86.27-0.10C86.55-0.23 86.79-0.42 87.00-0.66C87.20-0.90 87.36-1.19 87.47-1.54C87.58-1.89 87.64-2.27 87.64-2.70C87.64-3.13 87.58-3.51 87.47-3.85C87.36-4.19 87.20-4.48 87.00-4.72C86.79-4.96 86.55-5.14 86.27-5.27C85.99-5.39 85.68-5.46 85.34-5.46C85.00-5.46 84.69-5.40 84.41-5.27C84.13-5.15 83.89-4.96 83.69-4.73C83.49-4.49 83.33-4.20 83.22-3.86C83.11-3.52 83.05-3.14 83.05-2.70C83.05-2.27 83.11-1.89 83.22-1.54C83.33-1.19 83.49-0.90 83.69-0.66C83.89-0.42 84.13-0.23 84.41-0.10C84.69 0.03 85.00 0.10 85.34 0.10ZM85.34-0.50C85.10-0.50 84.89-0.55 84.69-0.65C84.50-0.76 84.33-0.91 84.19-1.10C84.05-1.29 83.95-1.52 83.87-1.79C83.79-2.06 83.76-2.37 83.76-2.70C83.76-3.04 83.79-3.34 83.87-3.60C83.95-3.87 84.05-4.10 84.19-4.28C84.33-4.47 84.50-4.61 84.69-4.71C84.89-4.81 85.10-4.86 85.34-4.86C85.58-4.86 85.80-4.81 85.99-4.71C86.18-4.61 86.35-4.47 86.49-4.28C86.63-4.10 86.74-3.87 86.81-3.60C86.89-3.34 86.93-3.04 86.93-2.70C86.93-2.37 86.89-2.06 86.81-1.79C86.74-1.52 86.63-1.29 86.49-1.10C86.35-0.91 86.18-0.76 85.99-0.65C85.80-0.55 85.58-0.50 85.34-0.50ZM90.44-5.36L90.44 0L93.46 0L93.46-0.58L91.12-0.58L91.12-5.36ZM94.41-5.36L94.41 0L95.09 0L95.09-5.36ZM96.56-5.36L96.56 0L97.24 0L97.24-2.40L99.28-2.40L99.28-2.97L97.24-2.97L97.24-4.79L99.65-4.79L99.65-5.36ZM100.60-5.36L100.60 0L103.77 0L103.77-0.58L101.28-0.58L101.28-2.53L103.31-2.53L103.31-3.11L101.28-3.11L101.28-4.79L103.69-4.79L103.69-5.36ZM104.55 1.00L104.72 1.39C105.05 1.25 105.31 1.05 105.50 0.78C105.69 0.52 105.79 0.22 105.79-0.14C105.79-0.38 105.74-0.58 105.64-0.72C105.54-0.86 105.40-0.93 105.22-0.93C105.09-0.93 104.97-0.89 104.87-0.80C104.78-0.72 104.73-0.60 104.73-0.46C104.73-0.31 104.77-0.19 104.87-0.11C104.96-0.03 105.08 0.01 105.21 0.01C105.25 0.01 105.27 0.01 105.29 0C105.29 0.22 105.22 0.42 105.09 0.59C104.96 0.76 104.78 0.89 104.55 1.00ZM110.57 0.10C110.91 0.10 111.22 0.03 111.50-0.10C111.78-0.23 112.02-0.42 112.22-0.66C112.43-0.90 112.59-1.19 112.70-1.54C112.81-1.89 112.87-2.27 112.87-2.70C112.87-3.13 112.81-3.51 112.70-3.85C112.59-4.19 112.43-4.48 112.22-4.72C112.02-4.96 111.78-5.14 111.50-5.27C111.22-5.39 110.91-5.46 110.57-5.46C110.23-5.46 109.92-5.40 109.64-5.27C109.36-5.15 109.12-4.96 108.92-4.73C108.72-4.49 108.56-4.20 108.45-3.86C108.34-3.52 108.28-3.14 108.28-2.70C108.28-2.27 108.34-1.89 108.45-1.54C108.56-1.19 108.72-0.90 108.92-0.66C109.12-0.42 109.36-0.23 109.64-0.10C109.92 0.03 110.23 0.10 110.57 0.10ZM110.57-0.50C110.33-0.50 110.11-0.55 109.92-0.65C109.73-0.76 109.56-0.91 109.42-1.10C109.28-1.29 109.17-1.52 109.10-1.79C109.02-2.06 108.98-2.37 108.98-2.70C108.98-3.04 109.02-3.34 109.10-3.60C109.17-3.87 109.28-4.10 109.42-4.28C109.56-4.47 109.73-4.61 109.92-4.71C110.11-4.81 110.33-4.86 110.57-4.86C110.81-4.86 111.03-4.81 111.22-4.71C111.41-4.61 111.58-4.47 111.72-4.28C111.86-4.10 111.96-3.87 112.04-3.60C112.12-3.34 112.15-3.04 112.15-2.70C112.15-2.37 112.12-2.06 112.04-1.79C111.96-1.52 111.86-1.29 111.72-1.10C111.58-0.91 111.41-0.76 111.22-0.65C111.03-0.55 110.81-0.50 110.57-0.50ZM114.02-5.36L114.02 0L114.66 0L114.66-2.80C114.66-3.09 114.65-3.37 114.63-3.65C114.62-3.93 114.60-4.21 114.57-4.48L114.61-4.48L115.19-3.38L117.13 0L117.83 0L117.83-5.36L117.19-5.36L117.19-2.59C117.19-2.31 117.20-2.02 117.22-1.73C117.24-1.44 117.25-1.15 117.27-0.88L117.24-0.88L116.66-1.99L114.72-5.36ZM119.31-5.36L119.31 0L122.48 0L122.48-0.58L119.98-0.58L119.98-2.53L122.02-2.53L122.02-3.11L119.98-3.11L119.98-4.79L122.39-4.79L122.39-5.36ZM125.26-5.36L125.26 0L125.94 0L125.94-2.12L126.91-2.12C127.20-2.12 127.47-2.16 127.71-2.23C127.95-2.30 128.16-2.40 128.34-2.53C128.51-2.67 128.64-2.84 128.74-3.05C128.84-3.26 128.88-3.50 128.88-3.78C128.88-4.08 128.84-4.33 128.74-4.53C128.64-4.73 128.51-4.89 128.34-5.01C128.17-5.14 127.96-5.22 127.71-5.28C127.47-5.33 127.20-5.36 126.91-5.36ZM126.82-2.68L125.94-2.68L125.94-4.81L126.82-4.81C127.29-4.81 127.63-4.74 127.86-4.59C128.09-4.44 128.20-4.17 128.20-3.78C128.20-3.40 128.09-3.12 127.87-2.95C127.64-2.77 127.29-2.68 126.82-2.68ZM129.97-5.36L129.97 0L132.99 0L132.99-0.58L130.65-0.58L130.65-5.36ZM136.25-2.18L134.64-2.18L134.89-3.00C134.99-3.30 135.08-3.60 135.17-3.89C135.25-4.19 135.34-4.49 135.42-4.81L135.45-4.81C135.54-4.49 135.63-4.19 135.72-3.89C135.80-3.60 135.89-3.30 135.99-3.00ZM136.42-1.63L136.92 0L137.65 0L135.84-5.36L135.07-5.36L133.26 0L133.95 0L134.46-1.63ZM138.41-5.36L138.41 0L139.06 0L139.06-2.80C139.06-3.09 139.05-3.37 139.03-3.65C139.01-3.93 138.99-4.21 138.97-4.48L139.00-4.48L139.58-3.38L141.53 0L142.23 0L142.23-5.36L141.58-5.36L141.58-2.59C141.58-2.31 141.59-2.02 141.61-1.73C141.63-1.44 141.65-1.15 141.66-0.88L141.63-0.88L141.05-1.99L139.11-5.36ZM147.63-2.18L146.02-2.18L146.27-3.00C146.37-3.30 146.46-3.60 146.55-3.89C146.64-4.19 146.72-4.49 146.80-4.81L146.84-4.81C146.92-4.49 147.01-4.19 147.10-3.89C147.19-3.60 147.28-3.30 147.38-3.00ZM147.80-1.63L148.31 0L149.04 0L147.22-5.36L146.45-5.36L144.64 0L145.33 0L145.85-1.63ZM150.58-4.79L150.58 0L151.27 0L151.27-4.79L152.88-4.79L152.88-5.36L148.96-5.36L148.96-4.79ZM157.78-2.18L156.17-2.18L156.42-3.00C156.52-3.30 156.61-3.60 156.70-3.89C156.79-4.19 156.87-4.49 156.95-4.81L156.99-4.81C157.07-4.49 157.16-4.19 157.25-3.89C157.34-3.60 157.43-3.30 157.53-3.00ZM157.95-1.63L158.46 0L159.19 0L157.37-5.36L156.60-5.36L154.79 0L155.48 0L156.00-1.63ZM162.71-4.79L162.71 0L163.39 0L163.39-4.79L165.01-4.79L165.01-5.36L161.09-5.36L161.09-4.79ZM165.98-5.36L165.98 0L166.65 0L166.65-5.36ZM168.13-5.36L168.13 0L168.76 0L168.76-2.95C168.76-3.19 168.74-3.45 168.72-3.74C168.70-4.03 168.68-4.30 168.67-4.54L168.70-4.54L169.12-3.34L170.16-0.54L170.54-0.54L171.57-3.34L172.01-4.54L172.04-4.54C172.02-4.30 172.00-4.03 171.98-3.74C171.96-3.45 171.95-3.19 171.95-2.95L171.95 0L172.60 0L172.60-5.36L171.80-5.36L170.77-2.48L170.39-1.39L170.36-1.39L169.96-2.48L168.93-5.36ZM174.07-5.36L174.07 0L177.24 0L177.24-0.58L174.75-0.58L174.75-2.53L176.78-2.53L176.78-3.11L174.75-3.11L174.75-4.79L177.16-4.79L177.16-5.36ZM178.50-4.71L178.59-1.62L179.05-1.62L179.14-4.71L179.16-5.48L178.48-5.48ZM178.33-0.41C178.33-0.26 178.38-0.14 178.48-0.04C178.57 0.05 178.69 0.10 178.82 0.10C178.95 0.10 179.07 0.05 179.16-0.04C179.26-0.14 179.31-0.26 179.31-0.41C179.31-0.57 179.26-0.69 179.16-0.79C179.07-0.88 178.95-0.93 178.82-0.93C178.69-0.93 178.57-0.88 178.48-0.79C178.38-0.69 178.33-0.57 178.33-0.41Z" transform="translate(-0.7354944156905474, 5.475347316807408)"></path></g></g></g></g></g><defs v-gra="od"></defs></g></svg>