<svg xmlns="http://www.w3.org/2000/svg" xmlns:xlink="http://www.w3.org/1999/xlink" version="1.0" x="0" y="0" width="2400" height="2399.9292411101205" viewBox="139.39999996185304 94.40090785980225 61.20000389099121 61.19819953918457" preserveAspectRatio="xMidYMid meet" color-interpolation-filters="sRGB"><g><defs><linearGradient id="92" x1="0%" y1="0%" x2="100%" y2="0%"><stop offset="0%" stop-color="#fa71cd"></stop> <stop offset="100%" stop-color="#9b59b6"></stop></linearGradient><linearGradient id="93" x1="0%" y1="0%" x2="100%" y2="0%"><stop offset="0%" stop-color="#f9d423"></stop> <stop offset="100%" stop-color="#f83600"></stop></linearGradient><linearGradient id="94" x1="0%" y1="0%" x2="100%" y2="0%"><stop offset="0%" stop-color="#0064d2"></stop> <stop offset="100%" stop-color="#1cb0f6"></stop></linearGradient><linearGradient id="95" x1="0%" y1="0%" x2="100%" y2="0%"><stop offset="0%" stop-color="#f00978"></stop> <stop offset="100%" stop-color="#3f51b1"></stop></linearGradient><linearGradient id="96" x1="0%" y1="0%" x2="100%" y2="0%"><stop offset="0%" stop-color="#7873f5"></stop> <stop offset="100%" stop-color="#ec77ab"></stop></linearGradient><linearGradient id="97" x1="0%" y1="0%" x2="100%" y2="0%"><stop offset="0%" stop-color="#f9d423"></stop> <stop offset="100%" stop-color="#e14fad"></stop></linearGradient><linearGradient id="98" x1="0%" y1="0%" x2="100%" y2="0%"><stop offset="0%" stop-color="#009efd"></stop> <stop offset="100%" stop-color="#2af598"></stop></linearGradient><linearGradient id="99" x1="0%" y1="0%" x2="100%" y2="0%"><stop offset="0%" stop-color="#ffcc00"></stop> <stop offset="100%" stop-color="#00b140"></stop></linearGradient><linearGradient id="100" x1="0%" y1="0%" x2="100%" y2="0%"><stop offset="0%" stop-color="#d51007"></stop> <stop offset="100%" stop-color="#ff8177"></stop></linearGradient><linearGradient id="102" x1="0%" y1="0%" x2="100%" y2="0%"><stop offset="0%" stop-color="#a2b6df"></stop> <stop offset="100%" stop-color="#0c3483"></stop></linearGradient><linearGradient id="103" x1="0%" y1="0%" x2="100%" y2="0%"><stop offset="0%" stop-color="#7ac5d8"></stop> <stop offset="100%" stop-color="#eea2a2"></stop></linearGradient><linearGradient id="104" x1="0%" y1="0%" x2="100%" y2="0%"><stop offset="0%" stop-color="#00ecbc"></stop> <stop offset="100%" stop-color="#007adf"></stop></linearGradient><linearGradient id="105" x1="0%" y1="0%" x2="100%" y2="0%"><stop offset="0%" stop-color="#b88746"></stop> <stop offset="100%" stop-color="#fdf5a6"></stop></linearGradient></defs><g class="imagesvg isNoFont" transform="translate(139.99999809265137,95.00090026855469)"><g><rect fill="#72cc0a" fill-opacity="0" stroke-width="2" x="0" y="0" width="60" height="59.99820005399838" class="image-rect"></rect> <svg x="0" y="0" width="60" height="59.99820005399838" filtersec="colorsb4508804519" class="image-svg-svg primary" style="overflow: visible;"><svg xmlns="http://www.w3.org/2000/svg" xmlns:xlink="http://www.w3.org/1999/xlink" version="1.1" id="图层_1" x="0px" y="0px" viewBox="0.14634323120117188 0.34535980224609375 99.65884399414062 99.65540313720703" enable-background="new 0 0 101 100" xml:space="preserve"> <path fill="#017A5C" d="M61.76,97.58c33.57,6.97,42.44-16.43,36.18-41.75c-3.42,10.02-10.23,18.91-18.72,26.1  C76.91,90.79,71.3,96.89,61.76,97.58L61.76,97.58z M95.74,48.54c-0.08-0.23-0.17-0.47-0.25-0.7c-4.12,5.95-9.47,11.28-15.53,15.84  c0.53,4.2,0.65,8.22,0.32,11.95C88.12,68.03,93.9,58.79,95.74,48.54L95.74,48.54z M93.69,43.36C84.04,21.21,63.88,1.19,39.71,2.72  c20.71,9.46,35.36,34.52,39.53,56.51C85.02,54.63,90.02,49.3,93.69,43.36L93.69,43.36z"></path> <path fill="#4D4D4D" d="M2.57,61.95c-6.98,33.62,16.5,42.47,41.86,36.16c-9.99-3.41-18.85-10.19-26.03-18.65  C9.45,77.18,3.27,71.57,2.57,61.95L2.57,61.95z M51.69,95.9l0.71-0.26c-5.94-4.12-11.26-9.46-15.82-15.51  c-4.18,0.54-8.2,0.66-11.92,0.35C32.26,88.3,41.48,94.06,51.69,95.9L51.69,95.9z M56.88,93.84C79,84.17,98.96,64.04,97.43,39.9  c-9.45,20.67-34.42,35.31-56.39,39.51C45.63,85.18,50.96,90.17,56.88,93.84L56.88,93.84z"></path> <path fill="#72CC0A" d="M38.2,2.76C4.7-4.2-4.21,19.1,1.97,44.35c3.46-9.98,10.28-18.84,18.78-26C23.07,9.53,28.67,3.46,38.2,2.76  L38.2,2.76z M4.14,51.6c0.1,0.27,0.2,0.55,0.3,0.82c4.13-5.94,9.49-11.25,15.55-15.8c-0.53-4.21-0.64-8.25-0.31-11.98  C11.84,32.21,6.04,41.41,4.14,51.6L4.14,51.6z M6.24,56.91c9.64,22.18,29.81,42.25,54.01,40.72C39.53,88.15,24.87,63.08,20.7,41.08  C14.92,45.66,9.92,50.98,6.24,56.91L6.24,56.91z"></path> <path fill="#B3B3B3" d="M97.39,38.39C104.35,4.89,81.05-4.01,55.8,2.17c9.98,3.46,18.84,10.28,25.99,18.78  C90.62,23.26,96.69,28.86,97.39,38.39L97.39,38.39z M48.55,4.34c-0.27,0.1-0.55,0.2-0.82,0.3c5.94,4.13,11.25,9.49,15.8,15.55  c4.21-0.53,8.25-0.64,11.98-0.31C67.94,12.04,58.74,6.24,48.55,4.34L48.55,4.34z M43.24,6.43C21.06,16.07,0.99,36.24,2.52,60.44  c9.47-20.72,34.54-35.38,56.54-39.54C54.48,15.12,49.17,10.11,43.24,6.43L43.24,6.43z"></path> <path fill="#017A5C" d="M91.82,39.35C81.58,18.85,62.41,1.28,39.71,2.72c14.57,6.66,26.14,21.04,33.17,36.63H91.82L91.82,39.35z"></path> </svg></svg> </g></g><defs v-gra="od"></defs></g></svg>