<svg xmlns="http://www.w3.org/2000/svg" xmlns:xlink="http://www.w3.org/1999/xlink" version="1.0" x="0" y="0" width="2400" height="1416.4045146814901" viewBox="80.04620529174805 71.91210342407227 179.9075894165039 106.17580078125" preserveAspectRatio="xMidYMid meet" color-interpolation-filters="sRGB"><g><defs><linearGradient id="92" x1="0%" y1="0%" x2="100%" y2="0%"><stop offset="0%" stop-color="#fa71cd"></stop> <stop offset="100%" stop-color="#9b59b6"></stop></linearGradient><linearGradient id="93" x1="0%" y1="0%" x2="100%" y2="0%"><stop offset="0%" stop-color="#f9d423"></stop> <stop offset="100%" stop-color="#f83600"></stop></linearGradient><linearGradient id="94" x1="0%" y1="0%" x2="100%" y2="0%"><stop offset="0%" stop-color="#0064d2"></stop> <stop offset="100%" stop-color="#1cb0f6"></stop></linearGradient><linearGradient id="95" x1="0%" y1="0%" x2="100%" y2="0%"><stop offset="0%" stop-color="#f00978"></stop> <stop offset="100%" stop-color="#3f51b1"></stop></linearGradient><linearGradient id="96" x1="0%" y1="0%" x2="100%" y2="0%"><stop offset="0%" stop-color="#7873f5"></stop> <stop offset="100%" stop-color="#ec77ab"></stop></linearGradient><linearGradient id="97" x1="0%" y1="0%" x2="100%" y2="0%"><stop offset="0%" stop-color="#f9d423"></stop> <stop offset="100%" stop-color="#e14fad"></stop></linearGradient><linearGradient id="98" x1="0%" y1="0%" x2="100%" y2="0%"><stop offset="0%" stop-color="#009efd"></stop> <stop offset="100%" stop-color="#2af598"></stop></linearGradient><linearGradient id="99" x1="0%" y1="0%" x2="100%" y2="0%"><stop offset="0%" stop-color="#ffcc00"></stop> <stop offset="100%" stop-color="#00b140"></stop></linearGradient><linearGradient id="100" x1="0%" y1="0%" x2="100%" y2="0%"><stop offset="0%" stop-color="#d51007"></stop> <stop offset="100%" stop-color="#ff8177"></stop></linearGradient><linearGradient id="102" x1="0%" y1="0%" x2="100%" y2="0%"><stop offset="0%" stop-color="#a2b6df"></stop> <stop offset="100%" stop-color="#0c3483"></stop></linearGradient><linearGradient id="103" x1="0%" y1="0%" x2="100%" y2="0%"><stop offset="0%" stop-color="#7ac5d8"></stop> <stop offset="100%" stop-color="#eea2a2"></stop></linearGradient><linearGradient id="104" x1="0%" y1="0%" x2="100%" y2="0%"><stop offset="0%" stop-color="#00ecbc"></stop> <stop offset="100%" stop-color="#007adf"></stop></linearGradient><linearGradient id="105" x1="0%" y1="0%" x2="100%" y2="0%"><stop offset="0%" stop-color="#b88746"></stop> <stop offset="100%" stop-color="#fdf5a6"></stop></linearGradient></defs><g fill="#72cc0a" class="icon-text-wrapper icon-svg-group iconsvg" transform="translate(81.81000542640686,73.67589950561523)"><g class="iconsvg-imagesvg" transform="translate(58.189992904663086,0)"><g><rect fill="#72cc0a" fill-opacity="0" stroke-width="2" x="0" y="0" width="60" height="59.99820005399838" class="image-rect"></rect> <svg x="0" y="0" width="60" height="59.99820005399838" filtersec="colorsb4498900063" class="image-svg-svg primary" style="overflow: visible;"><svg xmlns="http://www.w3.org/2000/svg" xmlns:xlink="http://www.w3.org/1999/xlink" version="1.1" id="图层_1" x="0px" y="0px" viewBox="0.14634323120117188 0.34535980224609375 99.65884399414062 99.65540313720703" enable-background="new 0 0 101 100" xml:space="preserve"> <path fill="#017A5C" d="M61.76,97.58c33.57,6.97,42.44-16.43,36.18-41.75c-3.42,10.02-10.23,18.91-18.72,26.1  C76.91,90.79,71.3,96.89,61.76,97.58L61.76,97.58z M95.74,48.54c-0.08-0.23-0.17-0.47-0.25-0.7c-4.12,5.95-9.47,11.28-15.53,15.84  c0.53,4.2,0.65,8.22,0.32,11.95C88.12,68.03,93.9,58.79,95.74,48.54L95.74,48.54z M93.69,43.36C84.04,21.21,63.88,1.19,39.71,2.72  c20.71,9.46,35.36,34.52,39.53,56.51C85.02,54.63,90.02,49.3,93.69,43.36L93.69,43.36z"></path> <path fill="#4D4D4D" d="M2.57,61.95c-6.98,33.62,16.5,42.47,41.86,36.16c-9.99-3.41-18.85-10.19-26.03-18.65  C9.45,77.18,3.27,71.57,2.57,61.95L2.57,61.95z M51.69,95.9l0.71-0.26c-5.94-4.12-11.26-9.46-15.82-15.51  c-4.18,0.54-8.2,0.66-11.92,0.35C32.26,88.3,41.48,94.06,51.69,95.9L51.69,95.9z M56.88,93.84C79,84.17,98.96,64.04,97.43,39.9  c-9.45,20.67-34.42,35.31-56.39,39.51C45.63,85.18,50.96,90.17,56.88,93.84L56.88,93.84z"></path> <path fill="#72CC0A" d="M38.2,2.76C4.7-4.2-4.21,19.1,1.97,44.35c3.46-9.98,10.28-18.84,18.78-26C23.07,9.53,28.67,3.46,38.2,2.76  L38.2,2.76z M4.14,51.6c0.1,0.27,0.2,0.55,0.3,0.82c4.13-5.94,9.49-11.25,15.55-15.8c-0.53-4.21-0.64-8.25-0.31-11.98  C11.84,32.21,6.04,41.41,4.14,51.6L4.14,51.6z M6.24,56.91c9.64,22.18,29.81,42.25,54.01,40.72C39.53,88.15,24.87,63.08,20.7,41.08  C14.92,45.66,9.92,50.98,6.24,56.91L6.24,56.91z"></path> <path fill="#B3B3B3" d="M97.39,38.39C104.35,4.89,81.05-4.01,55.8,2.17c9.98,3.46,18.84,10.28,25.99,18.78  C90.62,23.26,96.69,28.86,97.39,38.39L97.39,38.39z M48.55,4.34c-0.27,0.1-0.55,0.2-0.82,0.3c5.94,4.13,11.25,9.49,15.8,15.55  c4.21-0.53,8.25-0.64,11.98-0.31C67.94,12.04,58.74,6.24,48.55,4.34L48.55,4.34z M43.24,6.43C21.06,16.07,0.99,36.24,2.52,60.44  c9.47-20.72,34.54-35.38,56.54-39.54C54.48,15.12,49.17,10.11,43.24,6.43L43.24,6.43z"></path> <path fill="#017A5C" d="M91.82,39.35C81.58,18.85,62.41,1.28,39.71,2.72c14.57,6.66,26.14,21.04,33.17,36.63H91.82L91.82,39.35z"></path> </svg></svg> </g></g> <g transform="translate(0,66.99819946289062)"><g fill-rule="" class="tp-name iconsvg-namesvg"><g transform="scale(1)"><g><path d="M3.77 0L3.77-26.38 8.07-26.38 17.71-7.84 27.29-26.38 31.62-26.38 31.62 0 28.23 0 28.19-21.07 18.81-2.79 16.58-2.79 7.12-21.07 7.12 0 3.77 0ZM39.16 0L39.16-26.38 42.78-26.38 42.78-14.62 57.85-14.62 57.85-26.38 61.51-26.38 61.51 0 57.85 0 57.85-11.34 42.78-11.34 42.78 0 39.16 0ZM77-20.05Q79.97-20.05 82.29-18.77 84.61-17.49 85.91-15.21 87.21-12.93 87.21-9.99L87.21-9.99Q87.21-7.05 85.91-4.75 84.61-2.45 82.29-1.17 79.97 0.11 77 0.11L77 0.11Q73.98 0.11 71.66-1.17 69.35-2.45 68.05-4.73 66.75-7.01 66.75-9.99L66.75-9.99Q66.75-12.93 68.05-15.21 69.35-17.49 71.66-18.77 73.98-20.05 77-20.05L77-20.05ZM77-17Q75.04-17 73.51-16.09 71.98-15.19 71.14-13.59 70.29-11.98 70.29-9.95L70.29-9.95Q70.29-7.88 71.14-6.26 71.98-4.64 73.51-3.75 75.04-2.86 77-2.86L77-2.86Q78.92-2.86 80.45-3.75 81.97-4.64 82.82-6.26 83.67-7.88 83.67-9.95L83.67-9.95Q83.67-11.98 82.82-13.59 81.97-15.19 80.45-16.09 78.92-17 77-17L77-17ZM101.87-4.03L102.81-1.32Q100.52 0.15 98.14 0.15L98.14 0.15Q95.77 0.15 94.3-1.26 92.83-2.68 92.83-5.54L92.83-5.54 92.83-16.58 90-16.58 90-19.26 92.83-19.26 92.83-24.61 96.37-24.61 96.37-19.26 102.47-19.26 102.47-16.58 96.37-16.58 96.37-6.18Q96.37-4.52 96.97-3.81 97.58-3.09 98.78-3.09L98.78-3.09Q100.21-3.09 101.87-4.03L101.87-4.03ZM114.8-20.05Q119.43-20.05 121.81-17.32 124.18-14.59 124.18-9.72L124.18-9.72Q124.18-8.97 124.15-8.59L124.15-8.59 108.39-8.59Q108.81-5.92 110.63-4.33 112.46-2.75 115.14-2.75L115.14-2.75Q116.91-2.75 118.44-3.39 119.96-4.03 121.09-5.2L121.09-5.2 123.02-3.2Q121.55-1.62 119.47-0.75 117.4 0.11 114.87 0.11L114.87 0.11Q111.93 0.11 109.65-1.15 107.37-2.41 106.11-4.71 104.85-7.01 104.85-9.95L104.85-9.95Q104.85-12.89 106.11-15.17 107.37-17.45 109.64-18.75 111.9-20.05 114.8-20.05L114.8-20.05ZM108.35-11.31L121.02-11.31Q120.87-14.02 119.21-15.58 117.55-17.15 114.84-17.15L114.84-17.15Q112.2-17.15 110.45-15.57 108.69-13.98 108.35-11.31L108.35-11.31ZM129.16 0L129.16-27.96 132.66-27.96 132.66 0 129.16 0ZM139.71 0L139.71-19.94 143.22-19.94 143.22 0 139.71 0ZM141.44-27.89Q142.39-27.89 143.01-27.25 143.63-26.61 143.63-25.63L143.63-25.63Q143.63-24.65 143.01-24.01 142.39-23.37 141.44-23.37L141.44-23.37Q140.5-23.37 139.88-24.01 139.26-24.65 139.26-25.63L139.26-25.63Q139.26-26.61 139.88-27.25 140.5-27.89 141.44-27.89L141.44-27.89ZM157.39-25.06Q156.03-25.06 155.13-24.23 154.22-23.4 154.22-21.86L154.22-21.86 154.22-19.26 159.72-19.26 159.72-16.58 154.22-16.58 154.22 0 150.72 0 150.72-16.58 148.12-16.58 148.12-19.26 150.72-19.26 150.72-21.41Q150.72-23.59 151.64-25.12 152.56-26.65 154.07-27.42 155.58-28.19 157.31-28.19L157.31-28.19Q158.97-28.19 160.78-27.29L160.78-27.29 159.95-24.42Q158.59-25.06 157.39-25.06L157.39-25.06ZM171.03 2.83Q170.09 5.13 168.52 6.29 166.96 7.46 164.85 7.46L164.85 7.46Q163.57 7.46 162.51 7.09 161.46 6.71 160.48 5.92L160.48 5.92 161.98 3.17Q163.3 4.11 164.66 4.11L164.66 4.11Q166.92 4.11 168.05 1.55L168.05 1.55 168.81-0.23 160.55-19.94 164.25-19.94 170.58-3.96 176.57-19.94 180.15-19.94 171.03 2.83Z" transform="translate(-3.7699999809265137, 28.190000534057617)"></path></g> </g></g> </g></g><defs v-gra="od"></defs></g></svg>